<svg xmlns="http://www.w3.org/2000/svg" viewBox="0 0 1920 1080"><defs><style>.cls-1{fill:#e4f2fd;}.cls-2{fill:#cfecff;}.cls-3{fill:none;}.cls-4{fill:#bbdffc;}.cls-5{fill:#c9a89f;}.cls-6{fill:#eed9ce;}.cls-7{fill:#e0e0e0;}.cls-8{fill:#bdbdbd;}.cls-9{fill:#004d40;}.cls-10{fill:#724f44;}</style></defs><g id="Layer_2" data-name="Layer 2"><g id="Layer_1-2" data-name="Layer 1"><path class="cls-1" d="M1565.52,0c-102.44,25.77-315.23,79.45-548,138.25l-47,11.89h0C734.74,209.73,268.64,328.45,0,397V0Z"/><polygon class="cls-2" points="1723.95 0 1254.31 235.49 1254.23 235.53 1254.08 235.61 1254.06 235.62 1254.05 235.63 1215.71 254.85 1188.48 268.5 1167.8 278.87 1144.85 290.37 1144.84 290.38 1113.28 306.21 1090.32 317.72 1058.75 333.55 1035.79 345.06 1004.22 360.89 981.27 372.41 949.7 388.24 926.74 399.75 895.17 415.58 872.21 427.09 840.65 442.91 840.64 442.92 817.69 454.42 817.68 454.43 786.12 470.26 781.37 472.64 781.35 472.65 779.32 473.67 779.31 473.67 739.18 493.79 739.15 493.79 725.87 500.47 693.74 516.59 693.72 516.59 684.33 521.32 684.27 521.32 563.86 581.71 563.85 581.71 0 830.44 0 397.31 968.8 151.21 968.81 151.21 1017.8 138.8 1565.79 0 1723.95 0"/><line class="cls-3" x1="1616.97" y1="53.81" x2="1600.83" y2="61.9"/><polygon class="cls-4" points="1920 0 1920 738.63 1801.85 723.91 1553.05 692.92 1435.34 696.62 1190.25 704.33 1190.24 704.33 990.81 710.61 923.5 733.02 875.18 749.11 434.51 895.84 345.82 925.37 185.83 978.64 185.83 771.55 409.47 659.38 409.48 659.37 563.73 582.01 563.74 582.01 684.71 521.34 684.73 521.34 684.75 521.33 694.11 516.62 726.29 500.48 726.31 500.48 739.62 493.8 739.65 493.8 779.67 473.68 779.69 473.67 779.74 473.67 781.78 472.65 781.8 472.64 786.12 470.48 817.68 454.64 817.69 454.63 840.64 443.13 840.65 443.12 872.21 427.3 895.17 415.78 926.74 399.95 949.7 388.44 981.27 372.6 1004.22 361.09 1035.79 345.26 1058.75 333.74 1090.32 317.91 1113.28 306.39 1144.84 290.56 1144.85 290.55 1167.8 279.05 1188.83 268.5 1216.05 254.85 1254.4 235.62 1254.41 235.62 1254.43 235.6 1724.19 0 1920 0"/><line class="cls-3" x1="409.48" y1="675.41" x2="409.48" y2="659.37"/><path class="cls-5" d="M759.72,223.25c5.3-3.15,35.76-26.64,35.76-26.64l38.41,13.32,38.48-20.23,28.42,4.13,110.57-69.28,32.56,72.06,68.65-19,81.84,50.58L1231,214.52l23.42,21.09L725.21,248.68Z"/><polygon class="cls-6" points="724.69 472.64 724.69 235.62 1254.44 235.62 1254.6 482.57 724.69 472.64"/><polygon class="cls-5" points="694.28 499.95 702.97 472.64 1257.77 472.64 1277.38 509.56 694.28 499.95"/><polygon class="cls-6" points="656.43 520.42 669.98 493.21 1318.17 498.66 1332.16 542.14 656.43 520.42"/><polygon class="cls-7" points="1794.4 1080 1801.85 1069.68 1801.85 996.09 1801.85 723.91 1801.85 613.14 1801.85 612.89 1409.1 594.88 1381.18 506.77 1322.52 512.18 1219.85 521.66 1160.38 507.64 1160.3 507.64 1160.28 507.63 1142.39 503.39 1115.13 496.96 1115.12 496.95 1115.1 496.95 1036.92 478.5 1036.9 478.49 1036.84 478.49 1012.08 472.65 1012.06 472.65 1004.22 470.8 998.01 469.33 981.27 465.38 977.86 464.58 977.85 464.58 956.81 472.64 956.78 472.65 945.98 476.79 945.94 476.79 898.11 495.13 877.65 502.97 877.46 502.97 818.54 525.63 818.52 525.64 818.5 525.64 815.9 526.63 794.23 524.85 794.12 524.85 794.09 524.84 794.04 524.84 737.16 520.16 694.11 516.62 693.74 516.59 693.72 516.59 659.73 513.8 596.87 508.64 565.84 576.89 0 681.38 0 830.44 0 1045.4 0 1080 1729.23 1080 1794.4 1080"/><polygon class="cls-8" points="565.84 576.89 409.48 956.63 930.48 956.63 815.9 526.63 596.87 508.63 565.84 576.89"/><polygon class="cls-8" points="977.85 464.58 900.79 845.2 930.48 956.63 1149.35 956.71 1219.85 521.66 977.85 464.58"/><polygon class="cls-8" points="1920 1061.62 1920 738.63 1920 618.63 1801.85 613.14 1409.1 594.88 1435.34 696.62 1479.57 868.14 1502.39 956.63 1729.23 1080 1794.4 1080 1920 1080 1920 1061.62"/><polygon class="cls-9" points="1920 1061.62 1801.85 996.09 1523.89 841.92 1479.57 868.14 1317.27 964.16 1162.26 877.05 1162.25 877.05 1111.88 848.75 1005.16 954.84 924.8 935.33 863.82 920.52 808.62 784.86 712.9 949.27 531.71 871.71 432.68 900.3 432.67 900.3 345.82 925.37 0 1045.4 0 1080 1729.23 1080 1794.4 1080 1920 1080 1920 1061.62"/><polygon class="cls-6" points="724.69 235.62 796.05 217.62 804.92 226.62 827.07 197.76 863.69 209.36 945.07 157.61 945.07 206.09 967.66 196.61 1003.84 207.72 1049.04 177.59 1085.21 177.59 1107.81 217.53 1137.94 214.52 1155.94 217.62 1199.99 214.52 1254.44 235.62 724.69 235.62"/><rect class="cls-5" x="724.69" y="254.85" width="529.91" height="13.65"/><rect class="cls-10" x="763.16" y="268.5" width="22.96" height="204.14"/><rect class="cls-10" x="817.69" y="268.5" width="22.96" height="204.14"/><rect class="cls-10" x="872.21" y="268.5" width="22.96" height="204.14"/><rect class="cls-10" x="926.74" y="268.5" width="22.96" height="204.14"/><rect class="cls-10" x="981.27" y="268.5" width="22.96" height="204.14"/><rect class="cls-10" x="1035.79" y="268.5" width="22.96" height="204.14"/><rect class="cls-10" x="1090.32" y="268.5" width="22.96" height="204.14"/><rect class="cls-10" x="1144.85" y="268.5" width="22.96" height="204.14"/><rect class="cls-10" x="1199.37" y="268.5" width="22.96" height="204.14"/><line class="cls-3" y1="397.31" y2="397.02"/><line class="cls-3" x1="1794.4" y1="1080" x2="1729.23" y2="1080"/><line class="cls-3" x1="1920" y1="1080" x2="1920" y2="1061.62"/></g></g></svg>