<svg xmlns="http://www.w3.org/2000/svg" viewBox="0 0 836.49 98.66"><g id="Layer_2" data-name="Layer 2"><g id="Layer_1-2" data-name="Layer 1"><path d="M130.1,71.13a44.28,44.28,0,0,0-.77,6.59c0,3.37,1.55,5.43,5,5.43a16.08,16.08,0,0,0,7.49-1.94l3.49,13.44c-4.13,2.72-10.72,3.88-15.63,3.88-11.38,0-19.26-7.75-19.26-17.83a48.92,48.92,0,0,1,.78-8.27l5-28.05h-8.15l2.59-15.25H119l5.56-15h15.63l-2.58,15h16.67l-2.46,15.25H134.89Z"/><path d="M201.44,46.84a10.67,10.67,0,0,0-7.5-3.1c-5,0-9.3,3.1-12.4,8.27l-8,45.1H154.92l12-68h16.16l-.52,9.18c4-6.08,8.79-10.73,15.51-10.73a20,20,0,0,1,9.56,2.33Z"/><path d="M225.35,67.64c.39,8.66,4.91,16.29,14.73,16.29,8.4,0,14.6-4,19.51-10.21l11.89,8.79c-9,10.85-18.09,16-32.17,16-17.71,0-32.44-11.37-32.44-30.89,0-20.8,14.86-40.06,37.6-40.06,19.26,0,31,12.54,31,28.69a42.88,42.88,0,0,1-1.94,11.37Zm2.07-12.53H257c-.26-6.33-4.14-13.18-12.54-13.18S230.13,47.61,227.42,55.11Z"/><path d="M320.07,27.58C336,27.58,347,33.92,347,50.2a40.94,40.94,0,0,1-.77,6.85l-7.11,40.06H323.43l-.25-5.56c-5.43,5-10.86,7.11-17.06,7.11-11.63,0-22.49-7.49-22.49-20.68,0-17.06,16.8-22.87,31.92-22.87a51.37,51.37,0,0,1,12.15,1.81l.39-2.07a27.72,27.72,0,0,0,.64-4.65c0-6-6.07-8.4-11.63-8.4-7.11,0-14,2.19-21.19,6.2l-5.17-12.66A61.21,61.21,0,0,1,320.07,27.58Zm5.69,40.19a33.69,33.69,0,0,0-9.43-1.55c-5.95,0-14.74,2.2-14.74,11.12,0,5.42,4,8.53,8.66,8.53s9.05-2.07,13.31-5.69Z"/><path d="M384.43,29.13l-.65,9.18c4.53-6,12.41-10.73,19.52-10.73,7.49,0,15.12,4.14,18.61,10.86,6.59-7.37,14.6-10.86,22.87-10.86,13.31,0,22.36,8.27,22.36,23.26a69.39,69.39,0,0,1-1,10.6l-6.34,35.67H441.16l6.47-36.44a49.77,49.77,0,0,0,.9-8.15c0-5.29-2.71-9.17-8.14-9.17-5,0-11.5,3.23-15.64,8.14a62.5,62.5,0,0,1-1,9.82l-6.33,35.8H398.78l6.46-36.44a49.77,49.77,0,0,0,.9-8.15c0-5.29-3-9.17-8.14-9.17s-10.47,3-14.73,7.11L375,97.11H356.39l12-68Z"/><path d="M550,6.65c8.66,0,16.67,1.42,22.61,4.78,6.72,3.87,11.12,10.08,11.12,20.16,0,9.69-3.88,15.64-9.69,20.29a42.55,42.55,0,0,1-14.87,7.62L579.7,97.11H558.64L539.25,61.05h-3.87L529,97.11H510.3L526.2,6.65ZM538.09,45.42h5.3c4.78,0,9.69-.52,13.57-2.33,4.13-1.94,7-5.3,7-11.11a8.28,8.28,0,0,0-4.53-7.76c-2.84-1.55-6.59-1.94-11.24-1.94h-5.95Z"/><path d="M625.71,27.58c15.9,0,26.88,6.34,26.88,22.62a41,41,0,0,1-.78,6.85l-7.1,40.06H629.07l-.26-5.56c-5.43,5-10.85,7.11-17.06,7.11-11.63,0-22.48-7.49-22.48-20.68,0-17.06,16.8-22.87,31.92-22.87a51.29,51.29,0,0,1,12.14,1.81l.39-2.07a26.72,26.72,0,0,0,.65-4.65c0-6-6.08-8.4-11.63-8.4-7.11,0-14,2.19-21.2,6.2l-5.17-12.66A61.22,61.22,0,0,1,625.71,27.58Zm5.69,40.19A33.69,33.69,0,0,0,622,66.22c-5.94,0-14.73,2.2-14.73,11.12,0,5.42,4,8.53,8.66,8.53s9-2.07,13.31-5.69Z"/><path d="M662,97.11l12-68h18.61l-12,68Zm13.7-77.41,2.84-15.64h18.61L694.33,19.7Z"/><path d="M748,97.11V91.29a28.24,28.24,0,0,1-18.87,7.37c-15.24,0-29.59-11.37-29.59-31.27,0-20.68,15.77-39.81,36.57-39.81a27.38,27.38,0,0,1,20.16,8.79L762.7.19h18.6L764.12,97.11Zm1.3-21.32L753.13,54c-3.62-7.11-9.43-10.6-15.51-10.6-10.72,0-19.38,9.17-19.38,22.49,0,10.59,6.46,17,15.77,17A20.78,20.78,0,0,0,749.26,75.79Z"/><path d="M788.8,75.79c3.62,4.26,10,8.4,15.64,8.4,3.74,0,8.14-1.81,8.14-7,0-3.36-4.27-5.56-8.92-7.76-7.75-3.74-16.28-8.4-16.28-19.64,0-14.34,12.92-22.23,24.55-22.23a35.34,35.34,0,0,1,24.56,10.34L825.76,48.78c-3-3.1-8.4-6.85-13.44-6.85-3.88,0-7.24,2.45-7.24,6.2,0,3.49,4,5.43,8.92,7.88,7.88,3.88,17.06,8.66,17.06,20.29,0,14.74-13.44,22.36-27,22.36-10.08,0-20.68-4.65-26.36-14.09Z"/><path d="M100.55,78.56l-.6-3L83.29,62.49,80,59.93,37.74,26.73a27.66,27.66,0,0,0-10.46,18L61.56,75.49l3.64,3.26.47.43A32.52,32.52,0,0,1,26.31,64.69L13.16,75.07A49.34,49.34,0,0,0,80,92h0l3.51,3.16,2.46,0,18,.43Z"/><path d="M7.36,37.45,22.12,50.39c0-.58,0-1.16,0-1.75A32.43,32.43,0,0,1,32.3,25a32.89,32.89,0,0,1,7.49-5.28,32.51,32.51,0,0,1,36.93,5.2l4.49-3.55,8.71-6.87a50.42,50.42,0,0,0-5.37-4.65A49.27,49.27,0,0,0,55.05,0h-.44a49.17,49.17,0,0,0-28,9.18h0c-.23.16-.46.32-.68.49l0,0c-.62.46-1.23.94-1.83,1.43l-.22.18-.4.33-.18.16-.41.36c-.18.14-.34.29-.51.44l-.35.32-.55.51-.3.28-.56.55-.29.29c-.18.18-.36.36-.53.55l-.16.15h0c-.95,1-1.85,2-2.71,3.08l-6.67-5.24,2.64-2.22L8.94,7.59A55.31,55.31,0,0,0,0,18.25l3.91,3.28,1.73-3,6.92,6a48.42,48.42,0,0,0-3.92,8.56C8.15,34.56,7.72,36,7.36,37.45Z"/></g></g></svg>