<svg xmlns="http://www.w3.org/2000/svg" viewBox="0 0 401.53 381"><g id="Layer_2" data-name="Layer 2"><g id="Layer_1-2" data-name="Layer 1"><path d="M388.29,303.39,386,291.86l-64.35-50.53L309,231.43,145.73,103.24a106.79,106.79,0,0,0-40.39,69.62L237.71,291.51l14.06,12.6,1.83,1.65a125.56,125.56,0,0,1-152-55.93L50.83,289.92a190.59,190.59,0,0,0,258.08,65.41h0l13.59,12.19,9.49.21,69.53,1.64Z"/><path d="M28.44,144.61l57,50c-.11-2.23-.18-4.48-.18-6.74a125.44,125.44,0,0,1,211-91.7l17.32-13.69L347.24,55.9A196,196,0,0,0,326.49,38,190.24,190.24,0,0,0,212.59,0H210.9A189.71,189.71,0,0,0,102.68,35.44h0c-.88.63-1.75,1.27-2.62,1.91l-.15.11Q96.32,40.12,92.84,43l-.84.71c-.53.43-1,.85-1.57,1.29l-.69.6-1.6,1.38-2,1.73-1.34,1.22-2.11,2L81.56,53l-2.16,2.1-1.12,1.12-2.07,2.11-.58.6h0q-5.48,5.73-10.47,11.9L39.44,50.55,49.64,42,34.54,29.31A212.44,212.44,0,0,0,0,70.48L15.09,83.16l6.68-11.54L48.52,95a188.1,188.1,0,0,0-15.17,33C31.48,133.44,29.83,139,28.44,144.61Z"/></g></g></svg>