<svg id="Capa_1" enable-background="new 0 0 512 512" height="512" viewBox="0 0 512 512" width="512" xmlns="http://www.w3.org/2000/svg"><g><circle cx="447.25" cy="308.5" r="7.5"/><path d="m504.5 45h-143.5c-4.142 0-7.5 3.357-7.5 7.5s3.358 7.5 7.5 7.5h136v398.76c0 20.744-16.534 37.896-36.856 38.234-10.131.192-19.711-3.65-26.937-10.756-7.227-7.107-11.207-16.603-11.207-26.738 0-4.143-3.358-7.5-7.5-7.5h-309.5v-392h158.5v37.5c0 2.766 1.522 5.308 3.961 6.612 2.438 1.306 5.398 1.162 7.699-.372l10.84-7.226 10.84 7.227c2.52 1.68 5.801 1.68 8.32 0l10.84-7.227 10.84 7.227c1.255.837 2.706 1.26 4.161 1.26 1.213 0 2.43-.294 3.539-.888 2.438-1.305 3.961-3.847 3.961-6.612v-90c0-4.143-3.358-7.5-7.5-7.5h-60c-4.142 0-7.5 3.357-7.5 7.5v37.499h-166c-4.142 0-7.5 3.357-7.5 7.5v399.5h-82.501c-4.142 0-7.5 3.357-7.5 7.5 0 28.948 23.551 52.5 52.5 52.5h407c.302-.004.596-.003.894-.008 28.456-.474 51.606-24.354 51.606-53.232v-406.26c0-4.143-3.358-7.5-7.5-7.5zm-226-30h45v68.486l-3.34-2.227c-2.52-1.68-5.801-1.68-8.32 0l-10.84 7.227-10.84-7.227c-1.26-.839-2.71-1.259-4.16-1.259s-2.9.42-4.16 1.26l-3.34 2.227zm-226 482c-18.109 0-33.262-12.904-36.747-30h391.773c1.607 11.329 6.852 21.759 15.163 29.933.022.022.045.045.068.067z"/><path d="m244.75 196c-16.542 0-30 13.458-30 30v60c0 16.542 13.458 30 30 30s30-13.458 30-30v-60c0-16.542-13.458-30-30-30zm15 90c0 8.271-6.729 15-15 15s-15-6.729-15-15v-60c0-8.271 6.729-15 15-15s15 6.729 15 15z"/><path d="m379.75 308.5v-68.461l30.606 71.415c1.2 2.799 3.94 4.547 6.891 4.547.5 0 1.006-.051 1.511-.154 3.488-.716 5.992-3.786 5.992-7.347v-105c0-4.143-3.358-7.5-7.5-7.5s-7.5 3.357-7.5 7.5v68.461l-30.606-71.415c-1.403-3.272-4.913-5.106-8.401-4.393-3.488.716-5.992 3.786-5.992 7.347v105c0 4.143 3.358 7.5 7.5 7.5s7.499-3.357 7.499-7.5z"/><path d="m447.25 286c4.142 0 7.5-3.357 7.5-7.5v-75c0-4.143-3.358-7.5-7.5-7.5s-7.5 3.357-7.5 7.5v75c0 4.143 3.358 7.5 7.5 7.5z"/><path d="m289.75 226v60c0 16.542 13.458 30 30 30s30-13.458 30-30v-60c0-16.542-13.458-30-30-30s-30 13.458-30 30zm45 0v60c0 8.271-6.729 15-15 15s-15-6.729-15-15v-60c0-8.271 6.729-15 15-15s15 6.729 15 15z"/><path d="m169.75 211c8.271 0 15 6.729 15 15 0 4.143 3.358 7.5 7.5 7.5s7.5-3.357 7.5-7.5c0-16.542-13.458-30-30-30s-30 13.458-30 30c0 8.609 3.711 16.816 10.177 22.511l29.727 26.231c3.239 2.852 5.096 6.955 5.096 11.258 0 8.271-6.729 15-15 15s-15-6.729-15-15c0-4.143-3.358-7.5-7.5-7.5s-7.5 3.357-7.5 7.5c0 16.542 13.458 30 30 30s30-13.458 30-30c0-8.609-3.711-16.816-10.177-22.511l-29.727-26.231c-3.239-2.852-5.096-6.955-5.096-11.258 0-8.271 6.729-15 15-15z"/></g></svg>