<svg width="1361" height="1141" viewBox="0 0 1361 1141" fill="none" xmlns="http://www.w3.org/2000/svg">
<path d="M511.83 1071.92C471.208 1071.92 478.5 1056.29 463.917 1017.75L345.167 626.08L1082.67 165.667L1169.12 188.583L1097.25 384.42L511.83 1071.92Z" fill="#C8DAEA"/>
<path d="M511.83 1071.92C543.08 1071.92 556.62 1057.33 574.33 1040.67C601.42 1014.63 949.33 676.08 949.33 676.08L735.79 624L537.87 749L511.83 1061.5V1071.92Z" fill="#A9C9DD"/>
<path d="M532.67 753.17L1036.83 1125.04C1094.12 1156.29 1135.79 1140.67 1150.37 1071.92L1355.58 105.25C1376.42 20.8751 1323.29 -16.6249 1268.08 8.37503L63.917 472.96C-18.375 506.29 -17.333 552.13 49.333 571.92L358.708 668.79L1074.33 217.75C1107.67 196.917 1138.92 208.375 1113.92 231.292L532.67 753.17Z" fill="url(#paint0_linear)"/>
<defs>
<linearGradient id="paint0_linear" x1="834.66" y1="538.11" x2="1095.07" y2="954.78" gradientUnits="userSpaceOnUse">
<stop stop-color="#EFF7FC"/>
<stop offset="1" stop-color="white"/>
</linearGradient>
</defs>
</svg>
